<svg xmlns="http://www.w3.org/2000/svg" version="1.1" xmlns:xlink="http://www.w3.org/1999/xlink" xmlns:svgjs="http://svgjs.com/svgjs" width="1366" height="768" preserveAspectRatio="none" viewBox="0 0 1366 768"><g mask="url(&quot;#SvgjsMask1007&quot;)" fill="none"><rect width="1366" height="768" x="0" y="0" fill="#0e2a47"></rect><path d="M25.9 -49.86L90.85 -12.36L90.85 62.64L25.9 100.14L-39.05 62.64L-39.05 -12.36zM25.9 175.14L90.85 212.64L90.85 287.64L25.9 325.14L-39.05 287.64L-39.05 212.64zM90.85 287.64L155.81 325.14L155.81 400.14L90.85 437.64L25.9 400.14L25.9 325.14zM90.85 512.64L155.81 550.14L155.81 625.14L90.85 662.64L25.9 625.14L25.9 550.14zM25.9 625.14L90.85 662.64L90.85 737.64L25.9 775.14L-39.05 737.64L-39.05 662.64zM90.85 737.64L155.81 775.14L155.81 850.14L90.85 887.64L25.9 850.14L25.9 775.14zM155.81 -49.86L220.76 -12.36L220.76 62.64L155.81 100.14L90.85 62.64L90.85 -12.36zM220.76 287.64L285.71 325.14L285.71 400.14L220.76 437.64L155.81 400.14L155.81 325.14zM155.81 400.14L220.76 437.64L220.76 512.64L155.81 550.14L90.85 512.64L90.85 437.64zM155.81 625.14L220.76 662.64L220.76 737.64L155.81 775.14L90.85 737.64L90.85 662.64zM350.67 287.64L415.62 325.14L415.62 400.14L350.67 437.64L285.71 400.14L285.71 325.14zM350.67 512.64L415.62 550.14L415.62 625.14L350.67 662.64L285.71 625.14L285.71 550.14zM285.71 625.14L350.67 662.64L350.67 737.64L285.71 775.14L220.76 737.64L220.76 662.64zM350.67 737.64L415.62 775.14L415.62 850.14L350.67 887.64L285.71 850.14L285.71 775.14zM480.58 62.64L545.53 100.14L545.53 175.14L480.58 212.64L415.62 175.14L415.62 100.14zM415.62 175.14L480.58 212.64L480.58 287.64L415.62 325.14L350.67 287.64L350.67 212.64zM480.58 512.64L545.53 550.14L545.53 625.14L480.58 662.64L415.62 625.14L415.62 550.14zM415.62 625.14L480.58 662.64L480.58 737.64L415.62 775.14L350.67 737.64L350.67 662.64zM545.53 -49.86L610.48 -12.36L610.48 62.64L545.53 100.14L480.58 62.64L480.58 -12.36zM545.53 175.14L610.48 212.64L610.48 287.64L545.53 325.14L480.58 287.64L480.58 212.64zM545.53 400.14L610.48 437.64L610.48 512.64L545.53 550.14L480.58 512.64L480.58 437.64zM610.48 512.64L675.44 550.14L675.44 625.14L610.48 662.64L545.53 625.14L545.53 550.14zM545.53 625.14L610.48 662.64L610.48 737.64L545.53 775.14L480.58 737.64L480.58 662.64zM610.48 737.64L675.44 775.14L675.44 850.14L610.48 887.64L545.53 850.14L545.53 775.14zM675.44 -49.86L740.39 -12.36L740.39 62.64L675.44 100.14L610.48 62.64L610.48 -12.36zM740.39 737.64L805.35 775.14L805.35 850.14L740.39 887.64L675.44 850.14L675.44 775.14zM805.34 -49.86L870.3 -12.36L870.3 62.64L805.34 100.14L740.39 62.64L740.39 -12.36zM870.3 62.64L935.25 100.14L935.25 175.14L870.3 212.64L805.34 175.14L805.34 100.14zM870.3 512.64L935.25 550.14L935.25 625.14L870.3 662.64L805.34 625.14L805.34 550.14zM870.3 737.64L935.25 775.14L935.25 850.14L870.3 887.64L805.34 850.14L805.34 775.14zM1000.21 62.64L1065.16 100.14L1065.16 175.14L1000.21 212.64L935.25 175.14L935.25 100.14zM1000.21 512.64L1065.16 550.14L1065.16 625.14L1000.21 662.64L935.25 625.14L935.25 550.14zM1000.21 737.64L1065.16 775.14L1065.16 850.14L1000.21 887.64L935.25 850.14L935.25 775.14zM1065.16 -49.86L1130.11 -12.36L1130.11 62.64L1065.16 100.14L1000.21 62.64L1000.21 -12.36zM1130.11 62.64L1195.07 100.14L1195.07 175.14L1130.11 212.64L1065.16 175.14L1065.16 100.14zM1195.07 175.14L1260.02 212.64L1260.02 287.64L1195.07 325.14L1130.11 287.64L1130.11 212.64zM1260.02 737.64L1324.97 775.14L1324.97 850.14L1260.02 887.64L1195.07 850.14L1195.07 775.14zM1324.98 -49.86L1389.93 -12.36L1389.93 62.64L1324.98 100.14L1260.02 62.64L1260.02 -12.36zM1389.93 62.64L1454.88 100.14L1454.88 175.14L1389.93 212.64L1324.98 175.14L1324.98 100.14zM1389.93 512.64L1454.88 550.14L1454.88 625.14L1389.93 662.64L1324.98 625.14L1324.98 550.14zM1389.93 737.64L1454.88 775.14L1454.88 850.14L1389.93 887.64L1324.98 850.14L1324.98 775.14z" stroke="#03305d" stroke-width="2"></path><path d="M18.4 -49.86 a7.5 7.5 0 1 0 15 0 a7.5 7.5 0 1 0 -15 0zM83.35 -12.36 a7.5 7.5 0 1 0 15 0 a7.5 7.5 0 1 0 -15 0zM83.35 62.64 a7.5 7.5 0 1 0 15 0 a7.5 7.5 0 1 0 -15 0zM18.4 100.14 a7.5 7.5 0 1 0 15 0 a7.5 7.5 0 1 0 -15 0zM-46.55 62.64 a7.5 7.5 0 1 0 15 0 a7.5 7.5 0 1 0 -15 0zM-46.55 -12.36 a7.5 7.5 0 1 0 15 0 a7.5 7.5 0 1 0 -15 0zM18.4 175.14 a7.5 7.5 0 1 0 15 0 a7.5 7.5 0 1 0 -15 0zM83.35 212.64 a7.5 7.5 0 1 0 15 0 a7.5 7.5 0 1 0 -15 0zM83.35 287.64 a7.5 7.5 0 1 0 15 0 a7.5 7.5 0 1 0 -15 0zM18.4 325.14 a7.5 7.5 0 1 0 15 0 a7.5 7.5 0 1 0 -15 0zM-46.55 287.64 a7.5 7.5 0 1 0 15 0 a7.5 7.5 0 1 0 -15 0zM-46.55 212.64 a7.5 7.5 0 1 0 15 0 a7.5 7.5 0 1 0 -15 0zM148.31 325.14 a7.5 7.5 0 1 0 15 0 a7.5 7.5 0 1 0 -15 0zM148.31 400.14 a7.5 7.5 0 1 0 15 0 a7.5 7.5 0 1 0 -15 0zM83.35 437.64 a7.5 7.5 0 1 0 15 0 a7.5 7.5 0 1 0 -15 0zM18.4 400.14 a7.5 7.5 0 1 0 15 0 a7.5 7.5 0 1 0 -15 0zM83.35 512.64 a7.5 7.5 0 1 0 15 0 a7.5 7.5 0 1 0 -15 0zM148.31 550.14 a7.5 7.5 0 1 0 15 0 a7.5 7.5 0 1 0 -15 0zM148.31 625.14 a7.5 7.5 0 1 0 15 0 a7.5 7.5 0 1 0 -15 0zM83.35 662.64 a7.5 7.5 0 1 0 15 0 a7.5 7.5 0 1 0 -15 0zM18.4 625.14 a7.5 7.5 0 1 0 15 0 a7.5 7.5 0 1 0 -15 0zM18.4 550.14 a7.5 7.5 0 1 0 15 0 a7.5 7.5 0 1 0 -15 0zM83.35 737.64 a7.5 7.5 0 1 0 15 0 a7.5 7.5 0 1 0 -15 0zM18.4 775.14 a7.5 7.5 0 1 0 15 0 a7.5 7.5 0 1 0 -15 0zM-46.55 737.64 a7.5 7.5 0 1 0 15 0 a7.5 7.5 0 1 0 -15 0zM-46.55 662.64 a7.5 7.5 0 1 0 15 0 a7.5 7.5 0 1 0 -15 0zM148.31 775.14 a7.5 7.5 0 1 0 15 0 a7.5 7.5 0 1 0 -15 0zM148.31 850.14 a7.5 7.5 0 1 0 15 0 a7.5 7.5 0 1 0 -15 0zM83.35 887.64 a7.5 7.5 0 1 0 15 0 a7.5 7.5 0 1 0 -15 0zM18.4 850.14 a7.5 7.5 0 1 0 15 0 a7.5 7.5 0 1 0 -15 0zM148.31 -49.86 a7.5 7.5 0 1 0 15 0 a7.5 7.5 0 1 0 -15 0zM213.26 -12.36 a7.5 7.5 0 1 0 15 0 a7.5 7.5 0 1 0 -15 0zM213.26 62.64 a7.5 7.5 0 1 0 15 0 a7.5 7.5 0 1 0 -15 0zM148.31 100.14 a7.5 7.5 0 1 0 15 0 a7.5 7.5 0 1 0 -15 0zM213.26 287.64 a7.5 7.5 0 1 0 15 0 a7.5 7.5 0 1 0 -15 0zM278.21 325.14 a7.5 7.5 0 1 0 15 0 a7.5 7.5 0 1 0 -15 0zM278.21 400.14 a7.5 7.5 0 1 0 15 0 a7.5 7.5 0 1 0 -15 0zM213.26 437.64 a7.5 7.5 0 1 0 15 0 a7.5 7.5 0 1 0 -15 0zM213.26 512.64 a7.5 7.5 0 1 0 15 0 a7.5 7.5 0 1 0 -15 0zM213.26 662.64 a7.5 7.5 0 1 0 15 0 a7.5 7.5 0 1 0 -15 0zM213.26 737.64 a7.5 7.5 0 1 0 15 0 a7.5 7.5 0 1 0 -15 0zM343.17 287.64 a7.5 7.5 0 1 0 15 0 a7.5 7.5 0 1 0 -15 0zM408.12 325.14 a7.5 7.5 0 1 0 15 0 a7.5 7.5 0 1 0 -15 0zM408.12 400.14 a7.5 7.5 0 1 0 15 0 a7.5 7.5 0 1 0 -15 0zM343.17 437.64 a7.5 7.5 0 1 0 15 0 a7.5 7.5 0 1 0 -15 0zM343.17 512.64 a7.5 7.5 0 1 0 15 0 a7.5 7.5 0 1 0 -15 0zM408.12 550.14 a7.5 7.5 0 1 0 15 0 a7.5 7.5 0 1 0 -15 0zM408.12 625.14 a7.5 7.5 0 1 0 15 0 a7.5 7.5 0 1 0 -15 0zM343.17 662.64 a7.5 7.5 0 1 0 15 0 a7.5 7.5 0 1 0 -15 0zM278.21 625.14 a7.5 7.5 0 1 0 15 0 a7.5 7.5 0 1 0 -15 0zM278.21 550.14 a7.5 7.5 0 1 0 15 0 a7.5 7.5 0 1 0 -15 0zM343.17 737.64 a7.5 7.5 0 1 0 15 0 a7.5 7.5 0 1 0 -15 0zM278.21 775.14 a7.5 7.5 0 1 0 15 0 a7.5 7.5 0 1 0 -15 0zM408.12 775.14 a7.5 7.5 0 1 0 15 0 a7.5 7.5 0 1 0 -15 0zM408.12 850.14 a7.5 7.5 0 1 0 15 0 a7.5 7.5 0 1 0 -15 0zM343.17 887.64 a7.5 7.5 0 1 0 15 0 a7.5 7.5 0 1 0 -15 0zM278.21 850.14 a7.5 7.5 0 1 0 15 0 a7.5 7.5 0 1 0 -15 0zM473.08 62.64 a7.5 7.5 0 1 0 15 0 a7.5 7.5 0 1 0 -15 0zM538.03 100.14 a7.5 7.5 0 1 0 15 0 a7.5 7.5 0 1 0 -15 0zM538.03 175.14 a7.5 7.5 0 1 0 15 0 a7.5 7.5 0 1 0 -15 0zM473.08 212.64 a7.5 7.5 0 1 0 15 0 a7.5 7.5 0 1 0 -15 0zM408.12 175.14 a7.5 7.5 0 1 0 15 0 a7.5 7.5 0 1 0 -15 0zM408.12 100.14 a7.5 7.5 0 1 0 15 0 a7.5 7.5 0 1 0 -15 0zM473.08 287.64 a7.5 7.5 0 1 0 15 0 a7.5 7.5 0 1 0 -15 0zM343.17 212.64 a7.5 7.5 0 1 0 15 0 a7.5 7.5 0 1 0 -15 0zM473.08 512.64 a7.5 7.5 0 1 0 15 0 a7.5 7.5 0 1 0 -15 0zM538.03 550.14 a7.5 7.5 0 1 0 15 0 a7.5 7.5 0 1 0 -15 0zM538.03 625.14 a7.5 7.5 0 1 0 15 0 a7.5 7.5 0 1 0 -15 0zM473.08 662.64 a7.5 7.5 0 1 0 15 0 a7.5 7.5 0 1 0 -15 0zM473.08 737.64 a7.5 7.5 0 1 0 15 0 a7.5 7.5 0 1 0 -15 0zM538.03 -49.86 a7.5 7.5 0 1 0 15 0 a7.5 7.5 0 1 0 -15 0zM602.98 -12.36 a7.5 7.5 0 1 0 15 0 a7.5 7.5 0 1 0 -15 0zM602.98 62.64 a7.5 7.5 0 1 0 15 0 a7.5 7.5 0 1 0 -15 0zM473.08 -12.36 a7.5 7.5 0 1 0 15 0 a7.5 7.5 0 1 0 -15 0zM602.98 212.64 a7.5 7.5 0 1 0 15 0 a7.5 7.5 0 1 0 -15 0zM602.98 287.64 a7.5 7.5 0 1 0 15 0 a7.5 7.5 0 1 0 -15 0zM538.03 325.14 a7.5 7.5 0 1 0 15 0 a7.5 7.5 0 1 0 -15 0zM538.03 400.14 a7.5 7.5 0 1 0 15 0 a7.5 7.5 0 1 0 -15 0zM602.98 437.64 a7.5 7.5 0 1 0 15 0 a7.5 7.5 0 1 0 -15 0zM602.98 512.64 a7.5 7.5 0 1 0 15 0 a7.5 7.5 0 1 0 -15 0zM473.08 437.64 a7.5 7.5 0 1 0 15 0 a7.5 7.5 0 1 0 -15 0zM667.94 550.14 a7.5 7.5 0 1 0 15 0 a7.5 7.5 0 1 0 -15 0zM667.94 625.14 a7.5 7.5 0 1 0 15 0 a7.5 7.5 0 1 0 -15 0zM602.98 662.64 a7.5 7.5 0 1 0 15 0 a7.5 7.5 0 1 0 -15 0zM602.98 737.64 a7.5 7.5 0 1 0 15 0 a7.5 7.5 0 1 0 -15 0zM538.03 775.14 a7.5 7.5 0 1 0 15 0 a7.5 7.5 0 1 0 -15 0zM667.94 775.14 a7.5 7.5 0 1 0 15 0 a7.5 7.5 0 1 0 -15 0zM667.94 850.14 a7.5 7.5 0 1 0 15 0 a7.5 7.5 0 1 0 -15 0zM602.98 887.64 a7.5 7.5 0 1 0 15 0 a7.5 7.5 0 1 0 -15 0zM538.03 850.14 a7.5 7.5 0 1 0 15 0 a7.5 7.5 0 1 0 -15 0zM667.94 -49.86 a7.5 7.5 0 1 0 15 0 a7.5 7.5 0 1 0 -15 0zM732.89 -12.36 a7.5 7.5 0 1 0 15 0 a7.5 7.5 0 1 0 -15 0zM732.89 62.64 a7.5 7.5 0 1 0 15 0 a7.5 7.5 0 1 0 -15 0zM667.94 100.14 a7.5 7.5 0 1 0 15 0 a7.5 7.5 0 1 0 -15 0zM732.89 737.64 a7.5 7.5 0 1 0 15 0 a7.5 7.5 0 1 0 -15 0zM797.85 775.14 a7.5 7.5 0 1 0 15 0 a7.5 7.5 0 1 0 -15 0zM797.85 850.14 a7.5 7.5 0 1 0 15 0 a7.5 7.5 0 1 0 -15 0zM732.89 887.64 a7.5 7.5 0 1 0 15 0 a7.5 7.5 0 1 0 -15 0zM797.84 -49.86 a7.5 7.5 0 1 0 15 0 a7.5 7.5 0 1 0 -15 0zM862.8 -12.36 a7.5 7.5 0 1 0 15 0 a7.5 7.5 0 1 0 -15 0zM862.8 62.64 a7.5 7.5 0 1 0 15 0 a7.5 7.5 0 1 0 -15 0zM797.84 100.14 a7.5 7.5 0 1 0 15 0 a7.5 7.5 0 1 0 -15 0zM927.75 100.14 a7.5 7.5 0 1 0 15 0 a7.5 7.5 0 1 0 -15 0zM927.75 175.14 a7.5 7.5 0 1 0 15 0 a7.5 7.5 0 1 0 -15 0zM862.8 212.64 a7.5 7.5 0 1 0 15 0 a7.5 7.5 0 1 0 -15 0zM797.84 175.14 a7.5 7.5 0 1 0 15 0 a7.5 7.5 0 1 0 -15 0zM862.8 512.64 a7.5 7.5 0 1 0 15 0 a7.5 7.5 0 1 0 -15 0zM927.75 550.14 a7.5 7.5 0 1 0 15 0 a7.5 7.5 0 1 0 -15 0zM927.75 625.14 a7.5 7.5 0 1 0 15 0 a7.5 7.5 0 1 0 -15 0zM862.8 662.64 a7.5 7.5 0 1 0 15 0 a7.5 7.5 0 1 0 -15 0zM797.84 625.14 a7.5 7.5 0 1 0 15 0 a7.5 7.5 0 1 0 -15 0zM797.84 550.14 a7.5 7.5 0 1 0 15 0 a7.5 7.5 0 1 0 -15 0zM862.8 737.64 a7.5 7.5 0 1 0 15 0 a7.5 7.5 0 1 0 -15 0zM927.75 775.14 a7.5 7.5 0 1 0 15 0 a7.5 7.5 0 1 0 -15 0zM927.75 850.14 a7.5 7.5 0 1 0 15 0 a7.5 7.5 0 1 0 -15 0zM862.8 887.64 a7.5 7.5 0 1 0 15 0 a7.5 7.5 0 1 0 -15 0zM797.84 850.14 a7.5 7.5 0 1 0 15 0 a7.5 7.5 0 1 0 -15 0zM797.84 775.14 a7.5 7.5 0 1 0 15 0 a7.5 7.5 0 1 0 -15 0zM992.71 62.64 a7.5 7.5 0 1 0 15 0 a7.5 7.5 0 1 0 -15 0zM1057.66 100.14 a7.5 7.5 0 1 0 15 0 a7.5 7.5 0 1 0 -15 0zM1057.66 175.14 a7.5 7.5 0 1 0 15 0 a7.5 7.5 0 1 0 -15 0zM992.71 212.64 a7.5 7.5 0 1 0 15 0 a7.5 7.5 0 1 0 -15 0zM992.71 512.64 a7.5 7.5 0 1 0 15 0 a7.5 7.5 0 1 0 -15 0zM1057.66 550.14 a7.5 7.5 0 1 0 15 0 a7.5 7.5 0 1 0 -15 0zM1057.66 625.14 a7.5 7.5 0 1 0 15 0 a7.5 7.5 0 1 0 -15 0zM992.71 662.64 a7.5 7.5 0 1 0 15 0 a7.5 7.5 0 1 0 -15 0zM992.71 737.64 a7.5 7.5 0 1 0 15 0 a7.5 7.5 0 1 0 -15 0zM1057.66 775.14 a7.5 7.5 0 1 0 15 0 a7.5 7.5 0 1 0 -15 0zM1057.66 850.14 a7.5 7.5 0 1 0 15 0 a7.5 7.5 0 1 0 -15 0zM992.71 887.64 a7.5 7.5 0 1 0 15 0 a7.5 7.5 0 1 0 -15 0zM1057.66 -49.86 a7.5 7.5 0 1 0 15 0 a7.5 7.5 0 1 0 -15 0zM1122.61 -12.36 a7.5 7.5 0 1 0 15 0 a7.5 7.5 0 1 0 -15 0zM1122.61 62.64 a7.5 7.5 0 1 0 15 0 a7.5 7.5 0 1 0 -15 0zM992.71 -12.36 a7.5 7.5 0 1 0 15 0 a7.5 7.5 0 1 0 -15 0zM1187.57 100.14 a7.5 7.5 0 1 0 15 0 a7.5 7.5 0 1 0 -15 0zM1187.57 175.14 a7.5 7.5 0 1 0 15 0 a7.5 7.5 0 1 0 -15 0zM1122.61 212.64 a7.5 7.5 0 1 0 15 0 a7.5 7.5 0 1 0 -15 0zM1252.52 212.64 a7.5 7.5 0 1 0 15 0 a7.5 7.5 0 1 0 -15 0zM1252.52 287.64 a7.5 7.5 0 1 0 15 0 a7.5 7.5 0 1 0 -15 0zM1187.57 325.14 a7.5 7.5 0 1 0 15 0 a7.5 7.5 0 1 0 -15 0zM1122.61 287.64 a7.5 7.5 0 1 0 15 0 a7.5 7.5 0 1 0 -15 0zM1252.52 737.64 a7.5 7.5 0 1 0 15 0 a7.5 7.5 0 1 0 -15 0zM1317.47 775.14 a7.5 7.5 0 1 0 15 0 a7.5 7.5 0 1 0 -15 0zM1317.47 850.14 a7.5 7.5 0 1 0 15 0 a7.5 7.5 0 1 0 -15 0zM1252.52 887.64 a7.5 7.5 0 1 0 15 0 a7.5 7.5 0 1 0 -15 0zM1187.57 850.14 a7.5 7.5 0 1 0 15 0 a7.5 7.5 0 1 0 -15 0zM1187.57 775.14 a7.5 7.5 0 1 0 15 0 a7.5 7.5 0 1 0 -15 0zM1317.48 -49.86 a7.5 7.5 0 1 0 15 0 a7.5 7.5 0 1 0 -15 0zM1382.43 -12.36 a7.5 7.5 0 1 0 15 0 a7.5 7.5 0 1 0 -15 0zM1382.43 62.64 a7.5 7.5 0 1 0 15 0 a7.5 7.5 0 1 0 -15 0zM1317.48 100.14 a7.5 7.5 0 1 0 15 0 a7.5 7.5 0 1 0 -15 0zM1252.52 62.64 a7.5 7.5 0 1 0 15 0 a7.5 7.5 0 1 0 -15 0zM1252.52 -12.36 a7.5 7.5 0 1 0 15 0 a7.5 7.5 0 1 0 -15 0zM1447.38 100.14 a7.5 7.5 0 1 0 15 0 a7.5 7.5 0 1 0 -15 0zM1447.38 175.14 a7.5 7.5 0 1 0 15 0 a7.5 7.5 0 1 0 -15 0zM1382.43 212.64 a7.5 7.5 0 1 0 15 0 a7.5 7.5 0 1 0 -15 0zM1317.48 175.14 a7.5 7.5 0 1 0 15 0 a7.5 7.5 0 1 0 -15 0zM1382.43 512.64 a7.5 7.5 0 1 0 15 0 a7.5 7.5 0 1 0 -15 0zM1447.38 550.14 a7.5 7.5 0 1 0 15 0 a7.5 7.5 0 1 0 -15 0zM1447.38 625.14 a7.5 7.5 0 1 0 15 0 a7.5 7.5 0 1 0 -15 0zM1382.43 662.64 a7.5 7.5 0 1 0 15 0 a7.5 7.5 0 1 0 -15 0zM1317.48 625.14 a7.5 7.5 0 1 0 15 0 a7.5 7.5 0 1 0 -15 0zM1317.48 550.14 a7.5 7.5 0 1 0 15 0 a7.5 7.5 0 1 0 -15 0zM1382.43 737.64 a7.5 7.5 0 1 0 15 0 a7.5 7.5 0 1 0 -15 0zM1447.38 775.14 a7.5 7.5 0 1 0 15 0 a7.5 7.5 0 1 0 -15 0zM1447.38 850.14 a7.5 7.5 0 1 0 15 0 a7.5 7.5 0 1 0 -15 0zM1382.43 887.64 a7.5 7.5 0 1 0 15 0 a7.5 7.5 0 1 0 -15 0zM1317.48 850.14 a7.5 7.5 0 1 0 15 0 a7.5 7.5 0 1 0 -15 0zM1317.48 775.14 a7.5 7.5 0 1 0 15 0 a7.5 7.5 0 1 0 -15 0z" fill="#03305d"></path><path d="M33.74 -28.12L77.04 -3.12L77.04 46.88L33.74 71.88L-9.56 46.88L-9.56 -3.12zM77.04 346.88L120.34 371.88L120.34 421.88L77.04 446.88L33.74 421.88L33.74 371.88zM33.74 421.88L77.04 446.88L77.04 496.88L33.74 521.88L-9.56 496.88L-9.56 446.88zM120.34 -28.12L163.65 -3.12L163.65 46.88L120.34 71.88L77.04 46.88L77.04 -3.12zM163.65 46.88L206.95 71.88L206.95 121.88L163.65 146.88L120.34 121.88L120.34 71.88zM120.34 271.88L163.65 296.88L163.65 346.88L120.34 371.88L77.04 346.88L77.04 296.88zM163.65 346.88L206.95 371.88L206.95 421.88L163.65 446.88L120.34 421.88L120.34 371.88zM120.34 421.88L163.65 446.88L163.65 496.88L120.34 521.88L77.04 496.88L77.04 446.88zM163.65 496.88L206.95 521.88L206.95 571.88L163.65 596.88L120.34 571.88L120.34 521.88zM250.25 46.88L293.56 71.88L293.56 121.88L250.25 146.88L206.95 121.88L206.95 71.88zM206.95 271.88L250.25 296.88L250.25 346.88L206.95 371.88L163.65 346.88L163.65 296.88zM250.25 346.88L293.56 371.88L293.56 421.88L250.25 446.88L206.95 421.88L206.95 371.88zM250.25 496.88L293.56 521.88L293.56 571.88L250.25 596.88L206.95 571.88L206.95 521.88zM293.56 -28.12L336.86 -3.12L336.86 46.88L293.56 71.88L250.25 46.88L250.25 -3.12zM293.56 271.88L336.86 296.88L336.86 346.88L293.56 371.88L250.25 346.88L250.25 296.88zM336.86 346.88L380.16 371.88L380.16 421.88L336.86 446.88L293.56 421.88L293.56 371.88zM293.56 421.88L336.86 446.88L336.86 496.88L293.56 521.88L250.25 496.88L250.25 446.88zM336.86 646.88L380.16 671.88L380.16 721.88L336.86 746.88L293.56 721.88L293.56 671.88zM293.56 721.88L336.86 746.88L336.86 796.88L293.56 821.88L250.25 796.88L250.25 746.88zM423.46 46.88L466.77 71.88L466.77 121.88L423.46 146.88L380.16 121.88L380.16 71.88zM380.16 721.88L423.46 746.88L423.46 796.88L380.16 821.88L336.86 796.88L336.86 746.88zM466.77 -28.12L510.07 -3.12L510.07 46.88L466.77 71.88L423.46 46.88L423.46 -3.12zM510.07 46.88L553.37 71.88L553.37 121.88L510.07 146.88L466.77 121.88L466.77 71.88zM466.77 121.88L510.07 146.88L510.07 196.88L466.77 221.88L423.46 196.88L423.46 146.88zM466.77 421.88L510.07 446.88L510.07 496.88L466.77 521.88L423.46 496.88L423.46 446.88zM466.77 721.88L510.07 746.88L510.07 796.88L466.77 821.88L423.46 796.88L423.46 746.88zM553.37 -28.12L596.67 -3.12L596.67 46.88L553.37 71.88L510.07 46.88L510.07 -3.12zM596.67 46.88L639.98 71.88L639.98 121.88L596.67 146.88L553.37 121.88L553.37 71.88zM553.37 121.88L596.67 146.88L596.67 196.88L553.37 221.88L510.07 196.88L510.07 146.88zM596.67 196.88L639.98 221.88L639.98 271.88L596.67 296.88L553.37 271.88L553.37 221.88zM596.67 346.88L639.98 371.88L639.98 421.88L596.67 446.88L553.37 421.88L553.37 371.88zM553.37 421.88L596.67 446.88L596.67 496.88L553.37 521.88L510.07 496.88L510.07 446.88zM596.67 496.88L639.98 521.88L639.98 571.88L596.67 596.88L553.37 571.88L553.37 521.88zM596.67 646.88L639.98 671.88L639.98 721.88L596.67 746.88L553.37 721.88L553.37 671.88zM639.98 -28.12L683.28 -3.12L683.28 46.88L639.98 71.88L596.67 46.88L596.67 -3.12zM683.28 196.88L726.58 221.88L726.58 271.88L683.28 296.88L639.98 271.88L639.98 221.88zM683.28 346.88L726.58 371.88L726.58 421.88L683.28 446.88L639.98 421.88L639.98 371.88zM683.28 646.88L726.58 671.88L726.58 721.88L683.28 746.88L639.98 721.88L639.98 671.88zM769.88 46.88L813.19 71.88L813.19 121.88L769.88 146.88L726.58 121.88L726.58 71.88zM726.58 121.88L769.88 146.88L769.88 196.88L726.58 221.88L683.28 196.88L683.28 146.88zM769.88 196.88L813.19 221.88L813.19 271.88L769.88 296.88L726.58 271.88L726.58 221.88zM726.58 271.88L769.88 296.88L769.88 346.88L726.58 371.88L683.28 346.88L683.28 296.88zM726.58 421.88L769.88 446.88L769.88 496.88L726.58 521.88L683.28 496.88L683.28 446.88zM726.58 721.88L769.88 746.88L769.88 796.88L726.58 821.88L683.28 796.88L683.28 746.88zM813.19 -28.12L856.49 -3.12L856.49 46.88L813.19 71.88L769.88 46.88L769.88 -3.12zM813.19 121.88L856.49 146.88L856.49 196.88L813.19 221.88L769.88 196.88L769.88 146.88zM856.49 196.88L899.79 221.88L899.79 271.88L856.49 296.88L813.19 271.88L813.19 221.88zM856.49 346.88L899.79 371.88L899.79 421.88L856.49 446.88L813.19 421.88L813.19 371.88zM813.19 721.88L856.49 746.88L856.49 796.88L813.19 821.88L769.88 796.88L769.88 746.88zM943.09 46.88L986.4 71.88L986.4 121.88L943.09 146.88L899.79 121.88L899.79 71.88zM899.79 721.88L943.09 746.88L943.09 796.88L899.79 821.88L856.49 796.88L856.49 746.88zM986.4 121.88L1029.7 146.88L1029.7 196.88L986.4 221.88L943.09 196.88L943.09 146.88zM1029.7 196.88L1073 221.88L1073 271.88L1029.7 296.88L986.4 271.88L986.4 221.88zM986.4 571.88L1029.7 596.88L1029.7 646.88L986.4 671.88L943.09 646.88L943.09 596.88zM1029.7 646.88L1073 671.88L1073 721.88L1029.7 746.88L986.4 721.88L986.4 671.88zM986.4 721.88L1029.7 746.88L1029.7 796.88L986.4 821.88L943.09 796.88L943.09 746.88zM1073 -28.12L1116.3 -3.12L1116.3 46.88L1073 71.88L1029.7 46.88L1029.7 -3.12zM1116.3 46.88L1159.61 71.88L1159.61 121.88L1116.3 146.88L1073 121.88L1073 71.88zM1116.3 196.88L1159.61 221.88L1159.61 271.88L1116.3 296.88L1073 271.88L1073 221.88zM1116.3 496.88L1159.61 521.88L1159.61 571.88L1116.3 596.88L1073 571.88L1073 521.88zM1073 571.88L1116.3 596.88L1116.3 646.88L1073 671.88L1029.7 646.88L1029.7 596.88zM1073 721.88L1116.3 746.88L1116.3 796.88L1073 821.88L1029.7 796.88L1029.7 746.88zM1159.61 -28.12L1202.91 -3.12L1202.91 46.88L1159.61 71.88L1116.3 46.88L1116.3 -3.12zM1159.61 121.88L1202.91 146.88L1202.91 196.88L1159.61 221.88L1116.3 196.88L1116.3 146.88zM1159.61 271.88L1202.91 296.88L1202.91 346.88L1159.61 371.88L1116.3 346.88L1116.3 296.88zM1202.91 346.88L1246.21 371.88L1246.21 421.88L1202.91 446.88L1159.61 421.88L1159.61 371.88zM1159.61 721.88L1202.91 746.88L1202.91 796.88L1159.61 821.88L1116.3 796.88L1116.3 746.88zM1289.51 46.88L1332.82 71.88L1332.82 121.88L1289.51 146.88L1246.21 121.88L1246.21 71.88zM1289.51 196.88L1332.82 221.88L1332.82 271.88L1289.51 296.88L1246.21 271.88L1246.21 221.88zM1246.21 271.88L1289.51 296.88L1289.51 346.88L1246.21 371.88L1202.91 346.88L1202.91 296.88zM1289.51 346.88L1332.82 371.88L1332.82 421.88L1289.51 446.88L1246.21 421.88L1246.21 371.88zM1289.51 496.88L1332.82 521.88L1332.82 571.88L1289.51 596.88L1246.21 571.88L1246.21 521.88zM1332.82 -28.12L1376.12 -3.12L1376.12 46.88L1332.82 71.88L1289.51 46.88L1289.51 -3.12zM1376.12 46.88L1419.42 71.88L1419.42 121.88L1376.12 146.88L1332.82 121.88L1332.82 71.88zM1332.82 121.88L1376.12 146.88L1376.12 196.88L1332.82 221.88L1289.51 196.88L1289.51 146.88zM1332.82 421.88L1376.12 446.88L1376.12 496.88L1332.82 521.88L1289.51 496.88L1289.51 446.88zM1376.12 646.88L1419.42 671.88L1419.42 721.88L1376.12 746.88L1332.82 721.88L1332.82 671.88zM1332.82 721.88L1376.12 746.88L1376.12 796.88L1332.82 821.88L1289.51 796.88L1289.51 746.88z" stroke="rgba(6, 80, 156, 0.93)" stroke-width="2"></path></g><defs><mask id="SvgjsMask1007"><rect width="1366" height="768" fill="#ffffff"></rect></mask></defs></svg>